<?xml version="1.0" standalone="no"?>
<!DOCTYPE svg PUBLIC "-//W3C//DTD SVG 20010904//EN"
 "http://www.w3.org/TR/2001/REC-SVG-20010904/DTD/svg10.dtd">
<svg version="1.0" xmlns="http://www.w3.org/2000/svg"
 width="228.000000pt" height="221.000000pt" viewBox="0 0 228.000000 221.000000"
 preserveAspectRatio="xMidYMid meet">

<g transform="translate(0.000000,221.000000) scale(0.100000,-0.100000)"
fill="#000000" stroke="none">
<path d="M974 2126 c-177 -59 -274 -202 -274 -408 0 -48 -2 -88 -4 -88 -2 0
-23 7 -46 15 -68 24 -225 20 -296 -7 -124 -47 -234 -203 -257 -362 -19 -131
17 -241 108 -331 56 -57 150 -110 210 -120 76 -13 76 -13 50 -39 -28 -28 -66
-102 -90 -174 -12 -38 -16 -76 -14 -135 5 -104 39 -176 124 -262 92 -92 206
-145 318 -145 54 0 156 32 202 62 55 38 126 112 152 161 14 26 29 47 32 47 3
0 17 -16 30 -36 60 -88 190 -169 289 -181 169 -20 376 99 457 262 27 54 30 69
29 155 0 115 -23 181 -94 275 l-48 64 31 7 c100 21 232 125 276 217 95 196 1
490 -187 586 -66 34 -172 47 -261 32 -42 -7 -93 -22 -113 -32 -21 -10 -40 -19
-43 -19 -3 0 -5 17 -5 39 0 99 -52 245 -108 304 -39 41 -101 81 -158 102 -65
23 -252 30 -310 11z m475 -482 c17 -4 31 -9 30 -13 0 -3 -32 -28 -70 -56 -111
-80 -186 -178 -222 -290 -18 -60 -31 -145 -21 -145 4 0 31 23 61 51 112 106
231 130 356 71 79 -37 157 -111 187 -179 20 -45 39 -153 26 -153 -3 0 -34 21
-68 46 -131 97 -289 144 -417 123 -36 -5 -70 -14 -75 -19 -5 -5 11 -18 35 -30
105 -53 180 -142 199 -235 22 -104 -24 -242 -105 -319 -41 -40 -131 -93 -141
-83 -2 2 3 24 12 48 22 63 44 182 44 242 0 74 -25 170 -62 238 -32 61 -48 67
-48 19 0 -51 -39 -154 -78 -205 -23 -31 -59 -62 -92 -80 -51 -28 -62 -30 -160
-30 -91 0 -112 3 -155 25 -27 13 -72 47 -100 75 l-50 50 100 6 c205 12 310 53
423 162 52 51 69 86 35 72 -41 -17 -190 -18 -241 -1 -114 38 -199 160 -209
300 -6 79 8 141 48 206 l21 34 25 -84 c34 -119 77 -194 158 -276 63 -64 176
-136 191 -122 2 3 -10 36 -28 74 -27 56 -33 84 -36 150 -4 72 -1 87 23 137 34
69 86 118 170 163 57 29 76 34 134 34 38 0 83 -3 100 -6z"/>
</g>
</svg>
